<svg xmlns="http://www.w3.org/2000/svg" data-name="Layer 1" viewBox="0 0 5 6.25" x="0px" y="0px"><title>abstract</title><g><g><path d="M1.09043,1.35c.0406.073.04642.14885.0151.17322-.031.02409-.09222-.01147-.139-.08288C.91831,1.3668.90734,1.283.94465,1.25738.98227,1.23148,1.04868,1.27489,1.09043,1.35Z"/><path d="M1.37034,1.20065c.02866.074.02161.146-.01432.16476-.03558.01845-.09178-.02352-.12724-.09773-.03652-.0764-.03327-.15684.00924-.17517C1.28079,1.074,1.34077,1.12447,1.37034,1.20065Z"/><path d="M1.67817,1.1054c.01635.0718-.003.13645-.04213.14841s-.08852-.03518-.1117-.10895C1.50049,1.069,1.51754.99576,1.56349.986,1.60966.97606,1.66141,1.03156,1.67817,1.1054Z"/><path d="M2.00105,1.07044c.00442.06619-.02534.12047-.06625.12492s-.08232-.04564-.09322-.11556c-.01115-.07186.01792-.13416.06528-.13469S1.99645,1.00256,2.00105,1.07044Z"/><path d="M2.32432,1.09813c-.00592.0577-.04354.099-.08439.09573s-.07386-.05419-.07342-.11712c.00053-.06443.03884-.11289.08533-.10412A.11186.11186,0,0,1,2.32432,1.09813Z"/><path d="M2.63336,1.18634a.08167.08167,0,0,1-.09538.06312.09525.09525,0,0,1-.0536-.11367c.01-.05432.05416-.08718.0976-.06979A.10021.10021,0,0,1,2.63336,1.18634Z"/><path d="M2.91522,1.32892a.07462.07462,0,0,1-.09873.02963A.083.083,0,0,1,2.781,1.25268a.06765.06765,0,0,1,.10174-.03446A.08661.08661,0,0,1,2.91522,1.32892Z"/><ellipse cx="3.10312" cy="1.46737" rx="0.06174" ry="0.07523" transform="translate(-0.02172 2.88791) rotate(-49.75436)"/><path d="M.77923.91714c.03486.05951.03937.12138.01146.14055C.763,1.07673.71063,1.0466.67241.98809.63332.92826.62565.86148.65681.84149.68814.82132.74358.85637.77923.91714Z"/><path d="M1.20016.72638c.02321.06058.015.11746-.01751.12968C1.15029.86809,1.103.83062,1.07593.7697,1.04827.70752,1.05441.64528,1.09065.6335S1.17645.66445,1.20016.72638Z"/><path d="M1.66438.6449c.011.05729-.00861.10493-.04357.10885S1.546.715,1.53119.656c-.01513-.06017.00363-.113.04238-.11518S1.65314.58642,1.66438.6449Z"/><path d="M2.13747.681c0,.05-.02816.08495-.06293.08028S2.00867.71178,2.00547.659c-.00332-.05378.02519-.09322.06334-.08567A.10763.10763,0,0,1,2.13747.681Z"/><path d="M2.58409.82874a.05549.05549,0,0,1-.07346.04767.09332.09332,0,0,1-.04771-.0997C2.46922.7328,2.503.70877,2.53779.72506A.09633.09633,0,0,1,2.58409.82874Z"/><path d="M2.97438,1.07a.04863.04863,0,0,1-.07458.01532A.08.08,0,0,1,2.87152.994.04651.04651,0,0,1,2.948.97615.08188.08188,0,0,1,2.97438,1.07Z"/><path d="M3.28888,1.3792c-.01591.0167-.04583.01025-.06769-.01334a.06475.06475,0,0,1-.01256-.079c.01569-.02039.0473-.01554.06976.012A.06592.06592,0,0,1,3.28888,1.3792Z"/><path d="M1.37125,1.78575c.0406.07624.0488.15662.021.18356-.02747.02659-.08718-.00912-.13614-.08357-.05053-.07693-.065-.16627-.029-.19465C1.2635,1.66231,1.32931,1.70694,1.37125,1.78575Z"/><path d="M1.51224,1.68774c.03208.07724.03111.156,0,.18014-.03079.02381-.08686-.01563-.1278-.09234-.04235-.07935-.04664-.16752-.00692-.19183C1.41771,1.55909,1.479,1.608,1.51224,1.68774Z"/><path d="M1.66551,1.60548c.0234.07671.01334.15239-.0207.17325-.03377.02061-.08574-.02208-.11813-.09977-.03352-.08028-.02769-.16564.01529-.18531C1.58523,1.47377,1.64133,1.52623,1.66551,1.60548Z"/><path d="M1.829,1.54093c.0146.07483-.0042.14581-.04072.16292-.03627.01695-.08357-.02825-.10716-.1055-.02443-.07978-.00871-.16054.03681-.175C1.76368,1.40874,1.814,1.46378,1.829,1.54093Z"/><path d="M2.00011,1.49588c.00611.07139-.0208.13629-.05939.14929-.03828.01278-.08047-.03421-.09529-.10951-.01528-.07765.00977-.15214.057-.161S1.99388,1.4224,2.00011,1.49588Z"/><path d="M2.176,1.47164c-.00191.0665-.03609.12392-.076.13237s-.07659-.03959-.08288-.11145c-.00642-.074.027-.14055.07518-.14343S2.178,1.40329,2.176,1.47164Z"/><path d="M2.35345,1.46891a.1253.1253,0,0,1-.0899.1128c-.04059.00363-.07192-.04435-.07023-.11129.00182-.06882.04245-.12608.0905-.12289S2.36275,1.40714,2.35345,1.46891Z"/><path d="M2.52927,1.48805a.11715.11715,0,0,1-.10083.0909c-.04072-.00125-.06666-.04834-.05767-.1091.00921-.06227.05541-.10907.10252-.09983A.089.089,0,0,1,2.52927,1.48805Z"/><path d="M2.70024,1.52861a.11075.11075,0,0,1-.10832.06747c-.04009-.00617-.0608-.05156-.04567-.105A.09392.09392,0,0,1,2.6571,1.416.08071.08071,0,0,1,2.70024,1.52861Z"/><path d="M2.86328,1.58976a.10709.10709,0,0,1-.11211.0431.06722.06722,0,0,1-.03461-.09914.08821.08821,0,0,1,.11534-.04946A.072.072,0,0,1,2.86328,1.58976Z"/><path d="M3.01583,1.67a.10761.10761,0,0,1-.11233.01858.05916.05916,0,0,1-.02481-.09181.08485.08485,0,0,1,.11593-.02368A.06306.06306,0,0,1,3.01583,1.67Z"/></g><g><path d="M1.96954,3.8273c.04345-.07129.10666-.11371.14331-.09848.03624.01513.03549.08592-.00363.16185-.04025.07812-.10779.129-.14841.10913C1.91964,3.97975,1.92475,3.90066,1.96954,3.8273Z"/><path d="M1.70175,3.6573c.05028-.06146.1164-.09075.15036-.06876.03364.0219.02481.09147-.02233.15891-.04849.06938-.12013.10619-.157.07822C1.63563,3.79757,1.64991,3.72052,1.70175,3.6573Z"/><path d="M1.46717,3.43631c.05441-.04959.12022-.06465.14995-.03646.02951.02813.013.09438-.03981.15086-.05429.05811-.12642.07937-.15759.04423C1.38839,3.55957,1.41119,3.48728,1.46717,3.43631Z"/><path d="M1.27769,3.1725c.05548-.03643.11734-.03731.1414-.00385.0239.03336.00085.0941-.05466.138-.057.04511-.12561.05052-.14942.00955S1.22093,3.21,1.27769,3.1725Z"/><path d="M1.14259,2.87752a.09307.09307,0,0,1,.12486.02628c.01723.03731-.01075.091-.06578.1216-.05629.03133-.1174.02177-.13266-.023A.112.112,0,0,1,1.14259,2.87752Z"/><path d="M1.06706,2.56516a.08164.08164,0,0,1,.102.05193.09522.09522,0,0,1-.07251.10262c-.05218.018-.10258-.00423-.10882-.05055A.10024.10024,0,0,1,1.06706,2.56516Z"/><path d="M1.05237,2.24966a.07458.07458,0,0,1,.0744.07129.083.083,0,0,1-.07465.083A.06766.06766,0,0,1,.972,2.33239.08654.08654,0,0,1,1.05237,2.24966Z"/><ellipse cx="1.0803" cy="2.01791" rx="0.07522" ry="0.0617" transform="translate(-1.10344 2.70366) rotate(-79.27091)"/><path d="M1.7462,4.31135c.03458-.05967.08617-.094.11665-.07919.03016.01472.02979.07508-.00235.1372-.03283.06343-.08718.10306-.11988.08583C1.70764,4.43784,1.71083,4.37231,1.7462,4.31135Z"/><path d="M1.37279,4.039c.04128-.05005.09488-.07092.12151-.04865.02637.02224.0171.08185-.02258.13545-.04053.05469-.0977.08-.1258.05425S1.33062,4.09011,1.37279,4.039Z"/><path d="M1.0732,3.67516c.04448-.03784.0956-.0442.11618-.01572s.00313.0842-.04088.12617c-.04492.04276-.10011.05241-.12107.0198S1.02788,3.71375,1.0732,3.67516Z"/><path d="M.8716,3.24561c.04351-.02459.08774-.01732.10086.01529a.10407.10407,0,0,1-.055.11045c-.04511.02932-.09347.024-.10569-.01294A.10756.10756,0,0,1,.8716,3.24561Z"/><path d="M.7802,2.78418a.05553.05553,0,0,1,.07768.04044.09353.09353,0,0,1-.06331.09062C.75329,2.93137.71573,2.9138.71276,2.87558A.09635.09635,0,0,1,.7802,2.78418Z"/><path d="M.79793,2.32569a.04855.04855,0,0,1,.05.05735.0799.0799,0,0,1-.06553.06957A.04651.04651,0,0,1,.7292,2.39485.08184.08184,0,0,1,.79793,2.32569Z"/><path d="M.912,1.89968c.02233.00561.03148.0348.02177.06547A.06481.06481,0,0,1,.87123,2.015c-.02547-.00357-.03677-.03352-.0239-.0666C.86,1.91572.88965,1.894.912,1.89968Z"/><path d="M2.21045,3.36825c.04633-.07283.11223-.11959.14942-.10863.03671.01084.035.08031-.00567.15959-.04207.08192-.11267.13848-.15512.12116C2.15611,3.52286,2.16253,3.44358,2.21045,3.36825Z"/><path d="M2.05571,3.29385c.0514-.066.12038-.1039.15674-.08874.03587.015.0292.08326-.01745.15668-.04811.0759-.12276.1231-.16351.10052C1.99031,3.43951,2.00262,3.362,2.05571,3.29385Z"/><path d="M1.90862,3.201c.05525-.05814.126-.08664.161-.06731.03455.01923.023.08545-.0286.15192-.05338.06873-.13059.10572-.1689.078C1.83353,3.3357,1.85155,3.26106,1.90862,3.201Z"/><path d="M1.77192,3.0905c.05789-.04959.129-.06816.16188-.04483.03261.02321.01657.08668-.039.14525-.05738.06052-.13551.08664-.1705.05416C1.68907,3.21244,1.71221,3.14162,1.77192,3.0905Z"/><path d="M1.64841,2.96376c.05917-.04047.12886-.049.15912-.02183.03.027.00993.08686-.0483.13688-.06.0515-.13723.06638-.16821.0296S1.58755,3.00539,1.64841,2.96376Z"/><path d="M1.54065,2.82264a.13478.13478,0,0,1,.15267.00088c.02684.03051.00329.08617-.05616.127-.06124.042-.13563.04576-.16182.00526S1.48023,2.85456,1.54065,2.82264Z"/><path d="M1.45091,2.66953a.12548.12548,0,0,1,.14249.02271c.02308.03355-.0032.08445-.0623.116-.0608.03223-.13062.02512-.15155-.01829S1.39259,2.6919,1.45091,2.66953Z"/><path d="M1.38093,2.50712a.11733.11733,0,0,1,.12887.043c.01889.03606-.00931.08179-.06663.1039a.10152.10152,0,0,1-.13736-.04A.089.089,0,0,1,1.38093,2.50712Z"/><path d="M1.33207,2.33834a.11084.11084,0,0,1,.112.061c.01438.03793-.01485.07828-.06888.0915a.09388.09388,0,0,1-.11991-.05952A.08065.08065,0,0,1,1.33207,2.33834Z"/><path d="M1.30494,2.16637a.10714.10714,0,0,1,.09275.07634c.00949.03913-.02.07408-.06923.07891a.08809.08809,0,0,1-.09983-.076A.0719.0719,0,0,1,1.30494,2.16637Z"/><path d="M1.29961,1.99406a.10778.10778,0,0,1,.07155.08862.05913.05913,0,0,1-.06772.06675.08484.08484,0,0,1-.07772-.08915C1.22848,2.0142,1.26309,1.9846,1.29961,1.99406Z"/></g><g><path d="M3.70477,1.88214c-.08345-.00163-.152-.03477-.15728-.07411-.0052-.0389.05632-.074.14159-.07844.0878-.0047.16574.028.16912.07308C3.86164,1.84831,3.79072,1.88383,3.70477,1.88214Z"/><path d="M3.69309,2.19914c-.07841-.01244-.13708-.05479-.1352-.09522.00191-.04006.06644-.0675.14848-.0608.08436.00683.15223.05015.14672.09607C3.84758,2.18551,3.77381,2.21195,3.69309,2.19914Z"/><path d="M3.62057,2.51313c-.07026-.022-.11646-.0712-.10713-.11111.00943-.03966.07493-.05879.15036-.04172.07756.01761.13228.06917.11765.11383C3.76673,2.519,3.6928,2.53578,3.62057,2.51313Z"/><path d="M3.48832,2.80974c-.05942-.02948-.0914-.08244-.07465-.12013.01679-.03743.08085-.04814.14675-.0224.06769.02653.107.083.08361.1242S3.54928,2.8399,3.48832,2.80974Z"/><path d="M3.30172,3.07524a.09314.09314,0,0,1-.04028-.12113.10635.10635,0,0,1,.13817-.00451c.05548.03283.07806.09037.04711.12611A.112.112,0,0,1,3.30172,3.07524Z"/><path d="M3.07008,3.298a.08167.08167,0,0,1-.00658-.11421.09532.09532,0,0,1,.1252.01081.076.076,0,0,1,.01121.1195A.10021.10021,0,0,1,3.07008,3.298Z"/><path d="M2.805,3.46973a.07464.07464,0,0,1,.02409-.10017.083.083,0,0,1,.10932.02258.06765.06765,0,0,1-.02139.10528A.08661.08661,0,0,1,2.805,3.46973Z"/><ellipse cx="2.59087" cy="3.56255" rx="0.0752" ry="0.06172" transform="translate(-1.043 1.0727) rotate(-19.55534)"/><path d="M4.2354,1.83089c-.06891.00022-.12464-.027-.12721-.0608-.00251-.03352.0499-.06359.11966-.06719.07138-.00366.13294.02327.13457.06027C4.36408,1.80042,4.30591,1.83064,4.2354,1.83089Z"/><path d="M4.18857,2.29067c-.06409-.0104-.10907-.04614-.10324-.08038.00586-.034.062-.05607.12827-.0488.06772.00739.11844.044.11035.08129S4.25394,2.30135,4.18857,2.29067Z"/><path d="M4.02543,2.73287c-.055-.01933-.08633-.06027-.07211-.09241s.07113-.04517.12949-.02832c.05967.0172.09579.06.07821.09457S4.08166,2.75254,4.02543,2.73287Z"/><path d="M3.7563,3.12357c-.0432-.02518-.0593-.06706-.03775-.09478a.104.104,0,0,1,.1231-.00824c.04818.02418.06794.06863.04216.09782A.10765.10765,0,0,1,3.7563,3.12357Z"/><path d="M3.40387,3.43525a.05555.05555,0,0,1-.00426-.08749.09353.09353,0,0,1,.11026.00893c.03474.02753.0385.06882.007.09068A.09647.09647,0,0,1,3.40387,3.43525Z"/><path d="M2.999,3.65117a.04858.04858,0,0,1,.02431-.07211.07982.07982,0,0,1,.09309.02146.0465.0465,0,0,1-.023.07512A.08189.08189,0,0,1,2.999,3.65117Z"/><path d="M2.57366,3.76744c-.00642-.02212.01416-.0447.04554-.05181a.06484.06484,0,0,1,.07458.02891c.00974.02384-.0104.04868-.04552.05422C2.61369,3.80421,2.58,3.78965,2.57366,3.76744Z"/><path d="M3.18692,1.9056c-.08626-.00326-.15988-.03659-.16921-.07421-.00908-.03718.05175-.07073.14071-.07562.092-.005.17642.02747.18287.07286C3.3478,1.87459,3.27616,1.909,3.18692,1.9056Z"/><path d="M3.20067,2.07672c-.08288-.01109-.15039-.05149-.15565-.09059-.00511-.03856.05717-.06719.14412-.064.08984.00335.16821.044.16924.09056C3.35945,2.05978,3.28631,2.08819,3.20067,2.07672Z"/><path d="M3.19472,2.25057c-.07809-.01839-.13839-.06509-.13936-.105-.00081-.03953.06221-.063.14566-.05193.08623.01143.15706.05939.15245.10647C3.3489,2.24753,3.27538,2.26955,3.19472,2.25057Z"/><path d="M3.16828,2.42436c-.072-.025-.12395-.07693-.12041-.11712.00367-.03991.06654-.058.14513-.03956.08122.019.14315.07326.13278.11991C3.31535,2.43441,3.24252,2.45017,3.16828,2.42436Z"/><path d="M3.12114,2.59495c-.06484-.03067-.10738-.08655-.09914-.12642.00814-.03956.07-.05234.14259-.02728.07474.02584.12652.085.11039.13028S3.18773,2.62649,3.12114,2.59495Z"/><path d="M3.05361,2.75912c-.05657-.03508-.089-.0935-.07624-.13225.01281-.03853.07274-.0463.138-.01554.06719.03164.10791.094.08617.1371S3.11165,2.7952,3.05361,2.75912Z"/><path d="M2.96665,2.91386a.12534.12534,0,0,1-.05228-.13447c.01732-.03687.07455-.03984.13156-.0047.05854.03624.08758.10011.06067.14A.09676.09676,0,0,1,2.96665,2.91386Z"/><path d="M2.86171,3.0562a.11725.11725,0,0,1-.02791-.13291c.02164-.03452.07533-.03323.12332.00507a.10154.10154,0,0,1,.03471.13883A.08892.08892,0,0,1,2.86171,3.0562Z"/><path d="M2.74055,3.18353A.11093.11093,0,0,1,2.73676,3.056c.0255-.03161.07515-.02666.11377.01334a.09394.09394,0,0,1,.00908.13357A.08075.08075,0,0,1,2.74055,3.18353Z"/><path d="M2.60576,3.29372a.10718.10718,0,0,1,.01917-.11862.06717.06717,0,0,1,.103.02.08812.08812,0,0,1-.01526.12454A.072.072,0,0,1,2.60576,3.29372Z"/><path d="M2.45964,3.38519a.10774.10774,0,0,1,.04047-.10647.05912.05912,0,0,1,.09178.02478.0849.0849,0,0,1-.03781.11214A.0631.0631,0,0,1,2.45964,3.38519Z"/></g></g><text x="0" y="20" fill="#000000" font-size="5px" font-weight="bold" font-family="'Helvetica Neue', Helvetica, Arial-Unicode, Arial, Sans-serif">Created by Alice Noir</text><text x="0" y="25" fill="#000000" font-size="5px" font-weight="bold" font-family="'Helvetica Neue', Helvetica, Arial-Unicode, Arial, Sans-serif">from the Noun Project</text></svg>